$MeshFormat
4.1 0 8
$EndMeshFormat
$Entities
4 5 1 0
1 -0.002258661670585577 -0.00303983733321955 0 0 
2 -0.002258661670585577 -0.00303983733321955 0 0 
3 -0.002258661670585577 -0.00303983733321955 0 0 
4 -0.002258661670585577 -0.00303983733321955 0 0 
1 -0.002258661670585577 -0.00303983733321955 0 -0.002258661670585577 -0.00303983733321955 0 0 2 1 -1 
2 -0.002258661670585577 -0.00303983733321955 0 -0.002258661670585577 -0.00303983733321955 0 0 2 2 -2 
3 -0.002258661670585577 -0.00303983733321955 0 -0.002258661670585577 -0.00303983733321955 0 0 2 2 -2 
4 -0.002258661670585577 -0.00303983733321955 0 -0.002258661670585577 -0.00303983733321955 0 0 2 3 -3 
5 -0.002258661670585577 -0.00303983733321955 0 -0.002258661670585577 -0.00303983733321955 0 0 2 4 -4 
1 -0.002258661670585577 -0.00303983733321955 0 -0.002258661670585577 -0.00303983733321955 0 0 1 5 
$EndEntities
$Nodes
10 4 1 4
0 1 0 1
1
-0.002258661670585577 -0.00303983733321955 0
0 2 0 1
2
-0.002258661670585577 -0.00303983733321955 0
0 3 0 1
3
-0.002258661670585577 -0.00303983733321955 0
0 4 0 1
4
-0.002258661670585577 -0.00303983733321955 0
1 1 0 0
1 2 0 0
1 3 0 0
1 4 0 0
1 5 0 0
2 1 0 0
$EndNodes
$Elements
9 9 1 9
0 1 15 1
1 1 
0 2 15 1
2 2 
0 3 15 1
3 3 
0 4 15 1
4 4 
1 1 1 1
5 1 1 
1 2 1 1
6 2 2 
1 3 1 1
7 2 2 
1 4 1 1
8 3 3 
1 5 1 1
9 4 4 
$EndElements
